<?xml version="1.0" encoding="UTF-8" standalone="no"?>
<svg
   width="32"
   height="32"
   version="1.1"
   viewBox="0 0 32 32"
   id="svg9"
   sodipodi:docname="start.svg"
   inkscape:version="1.1.2 (0a00cf5339, 2022-02-04)"
   xmlns:inkscape="http://www.inkscape.org/namespaces/inkscape"
   xmlns:sodipodi="http://sodipodi.sourceforge.net/DTD/sodipodi-0.dtd"
   xmlns:xlink="http://www.w3.org/1999/xlink"
   xmlns="http://www.w3.org/2000/svg"
   xmlns:svg="http://www.w3.org/2000/svg"
   xmlns:rdf="http://www.w3.org/1999/02/22-rdf-syntax-ns#"
   xmlns:cc="http://creativecommons.org/ns#"
   xmlns:dc="http://purl.org/dc/elements/1.1/">
  <metadata
     id="metadata13">
    <rdf:RDF>
      <cc:Work
         rdf:about="">
        <dc:format>image/svg+xml</dc:format>
        <dc:type
           rdf:resource="http://purl.org/dc/dcmitype/StillImage" />
      </cc:Work>
    </rdf:RDF>
  </metadata>
  <sodipodi:namedview
     pagecolor="#ffffff"
     bordercolor="#666666"
     borderopacity="1"
     objecttolerance="10"
     gridtolerance="10"
     guidetolerance="10"
     inkscape:pageopacity="0"
     inkscape:pageshadow="2"
     inkscape:window-width="1920"
     inkscape:window-height="1054"
     id="namedview11"
     showgrid="true"
     inkscape:zoom="1.455"
     inkscape:cx="-193.47079"
     inkscape:cy="19.931271"
     inkscape:window-x="0"
     inkscape:window-y="0"
     inkscape:window-maximized="1"
     inkscape:current-layer="svg9"
     inkscape:pagecheckerboard="0">
    <inkscape:grid
       type="xygrid"
       id="grid822" />
  </sodipodi:namedview>
  <defs
     id="defs3">
    <linearGradient
       inkscape:collect="always"
       id="linearGradient2288">
      <stop
         style="stop-color:#00112b;stop-opacity:1;"
         offset="0"
         id="stop2284" />
      <stop
         style="stop-color:#00112b;stop-opacity:0;"
         offset="1"
         id="stop2286" />
    </linearGradient>
    <linearGradient
       inkscape:collect="always"
       id="linearGradient2242">
      <stop
         style="stop-color:#00112b;stop-opacity:1;"
         offset="0"
         id="stop2238" />
      <stop
         style="stop-color:#00112b;stop-opacity:0;"
         offset="1"
         id="stop2240" />
    </linearGradient>
    <linearGradient
       inkscape:collect="always"
       id="linearGradient2116">
      <stop
         style="stop-color:#ffef91;stop-opacity:1;"
         offset="0"
         id="stop2112" />
      <stop
         style="stop-color:#ffef91;stop-opacity:0;"
         offset="1"
         id="stop2114" />
    </linearGradient>
    <linearGradient
       inkscape:collect="always"
       id="linearGradient1973">
      <stop
         style="stop-color:#ffef91;stop-opacity:1;"
         offset="0"
         id="stop1969" />
      <stop
         style="stop-color:#ffef91;stop-opacity:0;"
         offset="1"
         id="stop1971" />
    </linearGradient>
    <style
       id="current-color-scheme"
       type="text/css">.ColorScheme-Text {
        color:#31363b;
        stop-color:#31363b;
      }
      .ColorScheme-Background {
        color:#eff0f1;
        stop-color:#eff0f1;
      }
      .ColorScheme-Highlight {
        color:#3daee9;
        stop-color:#3daee9;
      }
      .ColorScheme-ViewText {
        color:#31363b;
        stop-color:#31363b;
      }
      .ColorScheme-ViewBackground {
        color:#fcfcfc;
        stop-color:#fcfcfc;
      }
      .ColorScheme-ViewHover {
        color:#93cee9;
        stop-color:#93cee9;
      }
      .ColorScheme-ViewFocus{
        color:#3daee9;
        stop-color:#3daee9;
      }
      .ColorScheme-ButtonText {
        color:#31363b;
        stop-color:#31363b;
      }
      .ColorScheme-ButtonBackground {
        color:#eff0f1;
        stop-color:#eff0f1;
      }
      .ColorScheme-ButtonHover {
        color:#93cee9;
        stop-color:#93cee9;
      }
      .ColorScheme-ButtonFocus{
        color:#3daee9;
        stop-color:#3daee9;
      }</style>
    <linearGradient
       inkscape:collect="always"
       xlink:href="#linearGradient1973"
       id="linearGradient1975"
       x1="-64.976562"
       y1="-63.988281"
       x2="24.023438"
       y2="25.011719"
       gradientUnits="userSpaceOnUse" />
    <linearGradient
       inkscape:collect="always"
       xlink:href="#linearGradient2116"
       id="linearGradient2118"
       x1="1.4134617"
       y1="-37.086536"
       x2="60"
       y2="21.5"
       gradientUnits="userSpaceOnUse" />
    <linearGradient
       inkscape:collect="always"
       xlink:href="#linearGradient2242"
       id="linearGradient2244"
       x1="107.63753"
       y1="128.46249"
       x2="45.023438"
       y2="20.011719"
       gradientUnits="userSpaceOnUse" />
    <linearGradient
       inkscape:collect="always"
       xlink:href="#linearGradient2288"
       id="linearGradient2290"
       x1="130.02344"
       y1="155.72421"
       x2="-0.84889084"
       y2="24.851885"
       gradientUnits="userSpaceOnUse" />
  </defs>
  <g
     id="start-here-kde"
     transform="translate(-0.023438,-0.011719)">
    <g
       id="g2744">
      <rect
         style="color:#bebebe;display:inline;overflow:visible;visibility:visible;fill:none;stroke:none;stroke-width:1;marker:none"
         id="rect2742"
         width="32"
         height="32"
         x="0"
         y="0" />
    </g>
    <path
       id="path2746"
       style="fill:currentColor;stroke-width:1.6;stroke-linecap:round;stroke-opacity:0.992157"
       d="m 9,2.5000002 c -3.601,0 -6.5,2.899 -6.5,6.5 V 14.964845 H 14.976562 V 2.5000002 Z m 8.023438,0 V 14.964845 H 29.5 V 9.0000002 c 0,-3.601 -2.899,-6.5 -6.5,-6.5 z M 2.5,17.011719 V 23 c 0,3.601 2.899,6.5 6.5,6.5 h 5.976562 V 17.011719 Z m 14.523438,0 V 29.5 H 23 c 3.601,0 6.5,-2.899 6.5,-6.5 v -5.988281 z"
       class="ColorScheme-Highlight" />
    <path
       id="path1948"
       style="fill:url(#linearGradient1975);stroke-width:1.6;stroke-linecap:round;stroke-opacity:0.992157;fill-opacity:1"
       d="m 9,2.5000002 c -3.601,0 -6.5,2.899 -6.5,6.5 V 14.964845 H 14.976562 V 2.5000002 Z m 8.023438,0 V 14.964845 H 29.5 V 9.0000002 c 0,-3.601 -2.899,-6.5 -6.5,-6.5 z M 2.5,17.011719 V 23 c 0,3.601 2.899,6.5 6.5,6.5 h 5.976562 V 17.011719 Z m 14.523438,0 V 29.5 H 23 c 3.601,0 6.5,-2.899 6.5,-6.5 v -5.988281 z"
       class="ColorScheme-Highlight" />
    <path
       id="path2158"
       style="fill:url(#linearGradient2290);stroke-width:1.6;stroke-linecap:round;stroke-opacity:0.992157;fill-opacity:1"
       d="m 9,2.5000002 c -3.601,0 -6.5,2.899 -6.5,6.5 V 14.964845 H 14.976562 V 2.5000002 Z m 8.023438,0 V 14.964845 H 29.5 V 9.0000002 c 0,-3.601 -2.899,-6.5 -6.5,-6.5 z M 2.5,17.011719 V 23 c 0,3.601 2.899,6.5 6.5,6.5 h 5.976562 V 17.011719 Z m 14.523438,0 V 29.5 H 23 c 3.601,0 6.5,-2.899 6.5,-6.5 v -5.988281 z"
       class="ColorScheme-Highlight" />
  </g>
  <g
     id="22-22-star-here-kde"
     transform="translate(-0.023438,-0.011719)">
    <g
       id="g3540">
      <circle
         r="11"
         cy="21"
         cx="49.972176"
         id="path822-3"
         style="opacity:0;fill:#000000;fill-opacity:1;stroke:none;stroke-width:1.24874;stroke-linecap:round;stroke-linejoin:round;stroke-miterlimit:4;stroke-dasharray:none;stroke-opacity:1;paint-order:normal" />
      <g
         id="g266308"
         transform="translate(1,-28)" />
    </g>
    <path
       id="rect2542"
       style="opacity:1;fill:currentColor;fill-opacity:1;stroke:none;stroke-width:1.6;stroke-linecap:round;stroke-opacity:0.992157"
       d="M 45.5,12 C 43.007,12 41,14.007 41,16.5 V 21 h 9 v -9 z m 5.5,0 v 9 h 9 V 16.5 C 60,14.007 57.993,12 55.5,12 Z M 41,22 v 4.5 c 0,2.493 2.007,4.5 4.5,4.5 H 50 v -9 z m 10,0 v 9 h 4.5 C 57.993,31 60,28.993 60,26.5 V 22 Z"
       class="ColorScheme-Highlight" />
    <path
       id="path2091"
       style="opacity:1;fill:url(#linearGradient2118);fill-opacity:1;stroke:none;stroke-width:1.6;stroke-linecap:round;stroke-opacity:0.992157"
       d="M 45.5,12 C 43.007,12 41,14.007 41,16.5 V 21 h 9 v -9 z m 5.5,0 v 9 h 9 V 16.5 C 60,14.007 57.993,12 55.5,12 Z M 41,22 v 4.5 c 0,2.493 2.007,4.5 4.5,4.5 H 50 v -9 z m 10,0 v 9 h 4.5 C 57.993,31 60,28.993 60,26.5 V 22 Z"
       class="ColorScheme-Highlight" />
    <path
       id="path2198"
       style="opacity:1;fill:url(#linearGradient2244);fill-opacity:1;stroke:none;stroke-width:1.6;stroke-linecap:round;stroke-opacity:0.992157"
       d="M 45.5,12 C 43.007,12 41,14.007 41,16.5 V 21 h 9 v -9 z m 5.5,0 v 9 h 9 V 16.5 C 60,14.007 57.993,12 55.5,12 Z M 41,22 v 4.5 c 0,2.493 2.007,4.5 4.5,4.5 H 50 v -9 z m 10,0 v 9 h 4.5 C 57.993,31 60,28.993 60,26.5 V 22 Z"
       class="ColorScheme-Highlight" />
  </g>
</svg>
